<svg width="27" height="24" viewBox="0 0 27 24" fill="none" xmlns="http://www.w3.org/2000/svg">
<mask id="path-1-inside-1_142_81" fill="white">
<path d="M3 9.05133C4.3464 5.14578 8.02249 2.52467 12.1536 2.52467H14.8464C18.9775 2.52467 22.6536 5.14578 24 9.05133M21.75 16.3032C21.1533 16.3032 20.581 16.074 20.159 15.666C19.7371 15.258 19.5 14.7046 19.5 14.1276C19.5 13.5506 19.7371 12.9973 20.159 12.5893C20.581 12.1813 21.1533 11.9521 21.75 11.9521C22.3467 11.9521 22.919 12.1813 23.341 12.5893C23.7629 12.9973 24 13.5506 24 14.1276C24 14.7046 23.7629 15.258 23.341 15.666C22.919 16.074 22.3467 16.3032 21.75 16.3032ZM5.25 16.3032C4.65326 16.3032 4.08097 16.074 3.65901 15.666C3.23705 15.258 3 14.7046 3 14.1276C3 13.5506 3.23705 12.9973 3.65901 12.5893C4.08097 12.1813 4.65326 11.9521 5.25 11.9521C5.84674 11.9521 6.41903 12.1813 6.84099 12.5893C7.26295 12.9973 7.5 13.5506 7.5 14.1276C7.5 14.7046 7.26295 15.258 6.84099 15.666C6.41903 16.074 5.84674 16.3032 5.25 16.3032ZM23.88 1.79949C23.58 0.958275 22.74 0.349121 21.75 0.349121H5.25C4.26 0.349121 3.42 0.958275 3.12 1.79949L0.586724 8.86522C0.198486 9.94808 0 11.0898 0 12.2402V22.1046C0 22.4893 0.158035 22.8582 0.43934 23.1302C0.720644 23.4022 1.10218 23.555 1.5 23.555H3C3.39782 23.555 3.77936 23.4022 4.06066 23.1302C4.34196 22.8582 4.5 22.4893 4.5 22.1046C4.5 21.3036 5.14935 20.6543 5.95037 20.6543H21.0496C21.8506 20.6543 22.5 21.3036 22.5 22.1046C22.5 22.4893 22.658 22.8582 22.9393 23.1302C23.2206 23.4022 23.6022 23.555 24 23.555H25.5C25.8978 23.555 26.2794 23.4022 26.5607 23.1302C26.842 22.8582 27 22.4893 27 22.1046V12.2402C27 11.0898 26.8015 9.94808 26.4133 8.86522L23.88 1.79949Z"/>
</mask>
<path d="M3 9.05133C4.3464 5.14578 8.02249 2.52467 12.1536 2.52467H14.8464C18.9775 2.52467 22.6536 5.14578 24 9.05133M21.75 16.3032C21.1533 16.3032 20.581 16.074 20.159 15.666C19.7371 15.258 19.5 14.7046 19.5 14.1276C19.5 13.5506 19.7371 12.9973 20.159 12.5893C20.581 12.1813 21.1533 11.9521 21.75 11.9521C22.3467 11.9521 22.919 12.1813 23.341 12.5893C23.7629 12.9973 24 13.5506 24 14.1276C24 14.7046 23.7629 15.258 23.341 15.666C22.919 16.074 22.3467 16.3032 21.75 16.3032ZM5.25 16.3032C4.65326 16.3032 4.08097 16.074 3.65901 15.666C3.23705 15.258 3 14.7046 3 14.1276C3 13.5506 3.23705 12.9973 3.65901 12.5893C4.08097 12.1813 4.65326 11.9521 5.25 11.9521C5.84674 11.9521 6.41903 12.1813 6.84099 12.5893C7.26295 12.9973 7.5 13.5506 7.5 14.1276C7.5 14.7046 7.26295 15.258 6.84099 15.666C6.41903 16.074 5.84674 16.3032 5.25 16.3032ZM23.88 1.79949C23.58 0.958275 22.74 0.349121 21.75 0.349121H5.25C4.26 0.349121 3.42 0.958275 3.12 1.79949L0.586724 8.86522C0.198486 9.94808 0 11.0898 0 12.2402V22.1046C0 22.4893 0.158035 22.8582 0.43934 23.1302C0.720644 23.4022 1.10218 23.555 1.5 23.555H3C3.39782 23.555 3.77936 23.4022 4.06066 23.1302C4.34196 22.8582 4.5 22.4893 4.5 22.1046C4.5 21.3036 5.14935 20.6543 5.95037 20.6543H21.0496C21.8506 20.6543 22.5 21.3036 22.5 22.1046C22.5 22.4893 22.658 22.8582 22.9393 23.1302C23.2206 23.4022 23.6022 23.555 24 23.555H25.5C25.8978 23.555 26.2794 23.4022 26.5607 23.1302C26.842 22.8582 27 22.4893 27 22.1046V12.2402C27 11.0898 26.8015 9.94808 26.4133 8.86522L23.88 1.79949Z" fill="#333333"/>
<path d="M21.75 16.3032V17.3032V16.3032ZM21.75 11.9521V10.9521V11.9521ZM5.25 16.3032V17.3032V16.3032ZM5.25 11.9521V10.9521V11.9521ZM23.88 1.79949L22.9381 2.1354L22.9387 2.13698L23.88 1.79949ZM3.12 1.79949L4.06133 2.13698L4.0619 2.13539L3.12 1.79949ZM0 22.1046H-1H0ZM26.4133 8.86522L25.472 9.20272L26.4133 8.86522ZM12.1536 3.52467H14.8464V1.52467H12.1536V3.52467ZM21.75 15.3032C21.4078 15.3032 21.0862 15.1714 20.8541 14.9471L19.4639 16.3849C20.0758 16.9765 20.8987 17.3032 21.75 17.3032V15.3032ZM20.8541 14.9471C20.6232 14.7238 20.5 14.4283 20.5 14.1276H18.5C18.5 14.9809 18.8509 15.7921 19.4639 16.3849L20.8541 14.9471ZM20.5 14.1276C20.5 13.8269 20.6232 13.5314 20.8541 13.3082L19.4639 11.8704C18.8509 12.4631 18.5 13.2743 18.5 14.1276H20.5ZM20.8541 13.3082C21.0862 13.0838 21.4078 12.9521 21.75 12.9521V10.9521C20.8987 10.9521 20.0758 11.2787 19.4639 11.8704L20.8541 13.3082ZM21.75 12.9521C22.0922 12.9521 22.4138 13.0838 22.6459 13.3082L24.0361 11.8704C23.4242 11.2787 22.6013 10.9521 21.75 10.9521V12.9521ZM22.6459 13.3082C22.8768 13.5314 23 13.8269 23 14.1276H25C25 13.2743 24.6491 12.4631 24.0361 11.8704L22.6459 13.3082ZM23 14.1276C23 14.4283 22.8768 14.7238 22.6459 14.9471L24.0361 16.3849C24.6491 15.7921 25 14.9809 25 14.1276H23ZM22.6459 14.9471C22.4138 15.1714 22.0922 15.3032 21.75 15.3032V17.3032C22.6013 17.3032 23.4242 16.9765 24.0361 16.3849L22.6459 14.9471ZM5.25 15.3032C4.90782 15.3032 4.58616 15.1714 4.35412 14.9471L2.9639 16.3849C3.57578 16.9765 4.3987 17.3032 5.25 17.3032V15.3032ZM4.35412 14.9471C4.12323 14.7238 4 14.4283 4 14.1276H2C2 14.9809 2.35087 15.7921 2.9639 16.3849L4.35412 14.9471ZM4 14.1276C4 13.8269 4.12323 13.5314 4.35412 13.3082L2.9639 11.8704C2.35087 12.4631 2 13.2743 2 14.1276H4ZM4.35412 13.3082C4.58616 13.0838 4.90782 12.9521 5.25 12.9521V10.9521C4.3987 10.9521 3.57577 11.2787 2.9639 11.8704L4.35412 13.3082ZM5.25 12.9521C5.59218 12.9521 5.91384 13.0838 6.14588 13.3082L7.5361 11.8704C6.92423 11.2787 6.1013 10.9521 5.25 10.9521V12.9521ZM6.14588 13.3082C6.37677 13.5314 6.5 13.8269 6.5 14.1276H8.5C8.5 13.2743 8.14913 12.4631 7.5361 11.8704L6.14588 13.3082ZM6.5 14.1276C6.5 14.4283 6.37677 14.7238 6.14588 14.9471L7.5361 16.3849C8.14913 15.7921 8.5 14.9809 8.5 14.1276H6.5ZM6.14588 14.9471C5.91384 15.1714 5.59218 15.3032 5.25 15.3032V17.3032C6.1013 17.3032 6.92422 16.9765 7.5361 16.3849L6.14588 14.9471ZM24.8219 1.46358C24.3756 0.212229 23.15 -0.650879 21.75 -0.650879V1.34912C22.33 1.34912 22.7844 1.70432 22.9381 2.13539L24.8219 1.46358ZM21.75 -0.650879H5.25V1.34912H21.75V-0.650879ZM5.25 -0.650879C3.85002 -0.650879 2.62437 0.212229 2.1781 1.46358L4.0619 2.13539C4.21563 1.70432 4.66998 1.34912 5.25 1.34912V-0.650879ZM2.17867 1.46199L-0.354604 8.52773L1.52805 9.20272L4.06133 2.13698L2.17867 1.46199ZM-1 12.2402V22.1046H1V12.2402H-1ZM-1 22.1046C-1 22.7656 -0.728144 23.3924 -0.255773 23.8491L1.13445 22.4113C1.04421 22.324 1 22.213 1 22.1046H-1ZM-0.255773 23.8491C0.215454 24.3047 0.847615 24.555 1.5 24.555V22.555C1.35674 22.555 1.22583 22.4997 1.13445 22.4113L-0.255773 23.8491ZM1.5 24.555H3V22.555H1.5V24.555ZM3 24.555C3.65239 24.555 4.28455 24.3047 4.75577 23.8491L3.36555 22.4113C3.27416 22.4997 3.14326 22.555 3 22.555V24.555ZM4.75577 23.8491C5.22814 23.3924 5.5 22.7656 5.5 22.1046H3.5C3.5 22.213 3.45579 22.324 3.36555 22.4113L4.75577 23.8491ZM5.95037 21.6543H21.0496V19.6543H5.95037V21.6543ZM21.5 22.1046C21.5 22.7656 21.7719 23.3924 22.2442 23.8491L23.6345 22.4113C23.5442 22.324 23.5 22.213 23.5 22.1046H21.5ZM22.2442 23.8491C22.7155 24.3047 23.3476 24.555 24 24.555V22.555C23.8567 22.555 23.7258 22.4997 23.6345 22.4113L22.2442 23.8491ZM24 24.555H25.5V22.555H24V24.555ZM25.5 24.555C26.1524 24.555 26.7845 24.3047 27.2558 23.8491L25.8656 22.4113C25.7742 22.4997 25.6433 22.555 25.5 22.555V24.555ZM27.2558 23.8491C27.7281 23.3924 28 22.7656 28 22.1046H26C26 22.213 25.9558 22.3241 25.8656 22.4113L27.2558 23.8491ZM28 22.1046V12.2402H26V22.1046H28ZM27.3546 8.52773L24.8213 1.46199L22.9387 2.13698L25.472 9.20272L27.3546 8.52773ZM28 12.2402C28 10.9748 27.7817 9.71888 27.3546 8.52773L25.472 9.20272C25.8214 10.1773 26 11.2048 26 12.2402H28ZM14.8464 3.52467C18.5508 3.52467 21.8473 5.87507 23.0546 9.37724L24.9454 8.72541C23.4599 4.41649 19.4042 1.52467 14.8464 1.52467V3.52467ZM-0.354604 8.52773C-0.781665 9.71887 -1 10.9748 -1 12.2402H1C1 11.2048 1.17864 10.1773 1.52805 9.20272L-0.354604 8.52773ZM21.0496 21.6543C21.2984 21.6543 21.5 21.8559 21.5 22.1046H23.5C23.5 20.7513 22.4029 19.6543 21.0496 19.6543V21.6543ZM5.5 22.1046C5.5 21.8559 5.70164 21.6543 5.95037 21.6543V19.6543C4.59707 19.6543 3.5 20.7513 3.5 22.1046H5.5ZM3.9454 9.37724C5.15274 5.87507 8.44916 3.52467 12.1536 3.52467V1.52467C7.59582 1.52467 3.54006 4.41649 2.0546 8.72541L3.9454 9.37724Z" fill="black" mask="url(#path-1-inside-1_142_81)"/>
</svg>
